<?xml version="1.0" encoding="UTF-8"?>
<svg width="260px" height="177px" viewBox="0 0 260 177" version="1.1" xmlns="http://www.w3.org/2000/svg" xmlns:xlink="http://www.w3.org/1999/xlink">
    <!-- Generator: Sketch 54.1 (76490) - https://sketchapp.com -->
    <title>403</title>
    <desc>Created with Sketch.</desc>
    <g id="Material-Components" stroke="none" stroke-width="1" fill="none" fill-rule="evenodd">
        <g id="page-403-blue-dark" transform="translate(-546.000000, -360.000000)">
            <g id="403-blue-dark" transform="translate(499.000000, 286.000000)">
                <rect id="fond" x="0" y="0" width="360" height="260"></rect>
                <g id="panneau" transform="translate(110.000000, 95.000000)" stroke="#136AB3">
                    <path d="M27,9.31835938 L27,152.816406" id="Line-5" stroke-width="5" stroke-linecap="square"></path>
                    <circle id="Oval" stroke-width="2" fill="#B8D2E8" cx="27" cy="27" r="27"></circle>
                    <rect id="Rectangle" stroke-width="2" fill="#FFFFFF" x="11" y="22" width="32" height="12"></rect>
                </g>
                <path d="M128.16,227.3 L113.18,227.3 L113.18,249 L95.68,249 L95.68,227.3 L49.62,227.3 L49.62,217.08 L90.08,156.6 L113.18,156.6 L113.18,213.3 L128.16,213.3 L128.16,227.3 Z M68.24,213.3 L95.68,213.3 L95.68,185.02 L96.1,169.9 L95.82,169.9 C93.7666564,174.660024 90.9666844,179.74664 87.42,185.16 L68.24,213.3 Z M182.58,250.4 C170.353272,250.4 161.136698,246.386707 154.93,238.36 C148.723302,230.333293 145.62,218.480078 145.62,202.8 C145.62,187.119922 148.723302,175.266707 154.93,167.24 C161.136698,159.213293 170.353272,155.2 182.58,155.2 C194.806728,155.2 204.023302,159.213293 210.23,167.24 C216.436698,175.266707 219.54,187.119922 219.54,202.8 C219.54,218.480078 216.436698,230.333293 210.23,238.36 C204.023302,246.386707 194.806728,250.4 182.58,250.4 Z M182.58,234.86 C188.553363,234.86 192.986652,232.246693 195.88,227.02 C198.773348,221.793307 200.22,213.720055 200.22,202.8 C200.22,191.879945 198.773348,183.806693 195.88,178.58 C192.986652,173.353307 188.553363,170.74 182.58,170.74 C176.606637,170.74 172.173348,173.353307 169.28,178.58 C166.386652,183.806693 164.94,191.879945 164.94,202.8 C164.94,213.720055 166.386652,221.793307 169.28,227.02 C172.173348,232.246693 176.606637,234.86 182.58,234.86 Z M273.54,155.2 C283.433383,155.2 291.156639,157.53331 296.71,162.2 C302.263361,166.86669 305.04,172.933296 305.04,180.4 C305.04,184.973356 304.106676,188.91665 302.24,192.23 C300.373324,195.54335 298.08668,198.039992 295.38,199.72 C292.67332,201.400008 290.106679,202.24 287.68,202.24 L287.68,202.66 C290.760015,202.66 293.769985,203.453325 296.71,205.04 C299.650015,206.626675 302.076657,209.029984 303.99,212.25 C305.903343,215.470016 306.86,219.366644 306.86,223.94 C306.86,229.073359 305.390015,233.646647 302.45,237.66 C299.509985,241.673353 295.426693,244.799989 290.2,247.04 C284.973307,249.280011 279.000034,250.4 272.28,250.4 C263.226621,250.4 255.830029,248.556685 250.09,244.87 C244.349971,241.183315 240.173346,235.466705 237.56,227.72 L255.06,219.88 C256.086672,225.013359 257.976653,228.793321 260.73,231.22 C263.483347,233.646679 267.379975,234.86 272.42,234.86 C277.180024,234.86 280.959986,233.670012 283.76,231.29 C286.560014,228.909988 287.96,225.713353 287.96,221.7 C287.96,217.406645 286.630013,214.303343 283.97,212.39 C281.309987,210.476657 277.133362,209.52 271.44,209.52 L266.82,209.52 L266.82,196.08 L270.74,196.08 C280.82005,196.08 285.86,191.833376 285.86,183.34 C285.86,179.233313 284.716678,176.106677 282.43,173.96 C280.143322,171.813323 276.900021,170.74 272.7,170.74 C268.406645,170.74 264.953346,171.859989 262.34,174.1 C259.726654,176.340011 258.093337,179.606645 257.44,183.9 L240.22,177.6 C241.993342,170.22663 245.843304,164.650019 251.77,160.87 C257.696696,157.089981 264.95329,155.2 273.54,155.2 Z" fill="#FFFFFF" fill-rule="nonzero"></path>
                <g id="bird" transform="translate(122.000000, 74.000000)">
                    <path d="M16.0505663,16.9564334 C15.5933233,16.9550908 15.1414809,16.9384696 14.6956522,16.9081097 L14.6956522,21.4782609 L13.5652174,21.4782609 L13.5652174,16.8010138 C5.71971398,15.8500883 0,10.8603556 0,10.8603556 L3.56664904,8.53757617 L7.92896563,10.9516734 L10.2901058,10.6481838 L2.21229885,5.85033826 L17.6564302,6.08527173 C17.6564302,6.08527173 17.7205586,0.195134556 20.1724814,0.0149376006 C22.6246681,-0.165259355 23.7391304,1.27658726 23.7391304,4.79083436 C23.7391304,8.14937459 23.6130884,16.1454596 17.205479,16.8989615 L18.3808934,21.2856677 L17.2889772,21.5782458 L16.0505663,16.9564334 Z M22.0434783,4.52173913 C22.3556392,4.52173913 22.6086957,4.26868268 22.6086957,3.95652174 C22.6086957,3.64436079 22.3556392,3.39130435 22.0434783,3.39130435 C21.7313173,3.39130435 21.4782609,3.64436079 21.4782609,3.95652174 C21.4782609,4.26868268 21.7313173,4.52173913 22.0434783,4.52173913 Z" id="Combined-Shape" fill="#FFFFFF"></path>
                    <polyline id="Path-49" stroke="#FFFFFF" stroke-width="0.5" points="22.6086957 3.39130435 26 5.65217391 22.6086957 6.7826087"></polyline>
                </g>
                <path d="M48,105.947604 C48,105.947604 48.5661303,98.4932157 53.9415555,95.7848301 C59.317492,93.0766976 62.5623853,99.0890606 62.5623853,99.0890606 C62.5623853,99.0890606 67.3686117,89.2259808 72.4198032,87.4328777 C73.1894745,87.159761 74.0013371,86.9463808 74.8160124,87.0119389 C77.1038027,87.1964635 78.7042588,89.6593225 78.5408634,91.9257603 C78.3772124,94.1921981 77.1130081,95.7964737 77.1130081,95.7964737 C77.1130081,95.7964737 80.4842195,92.835221 83.6761818,94.3833039 C86.8678885,95.9313867 83.6306664,100.913804 83.6306664,100.913804 C83.6306664,100.913804 88.1400196,96.6639164 92.0755713,98.3745024 C96.0116345,100.084835 94.8353926,106 94.8353926,106 L48,105.947604 Z" id="Fill-1" stroke="#FFFFFF"></path>
                <path d="M205.143388,129.772574 C201.687486,126.584466 197.362346,131.232027 197.362346,131.232027 C197.362346,131.232027 198.186511,125.812605 193.754443,124.293475 C191.369134,123.475709 188.633432,124.450864 186.802501,126.180174 C184.971571,127.909484 183.978954,132.683284 183.978954,132.683284 C183.978954,132.683284 181.12415,128.912509 178.514129,131.625827 C176.936206,133.266278 177.000363,137 177.000363,137 L203.946127,136.880975 C203.946127,136.880975 207.6172,132.054056 205.143388,129.772574" id="Fill-1" stroke="#FFFFFF"></path>
                <path d="M224,108.811263 C224.160506,103.641999 223.911111,97.5091183 226.713429,93.174537 C229.515748,88.8399557 234.348609,85.6089537 239.483946,85.7455227 C241.934921,85.8104142 244.46973,86.7138054 246.005276,88.6384952 C248.834977,91.8737385 247.416546,96.2978106 247.416546,96.2978106 C247.416546,96.2978106 250.965784,82.2044836 261.566315,82.0021749 C272.166425,81.7998661 272.604551,95.7680756 269.319873,100.368161 C269.76516,99.1509152 272.409922,96.47552 274.336832,96.9692042 C277.144205,97.8051592 276.704816,100.432628 275.577064,102.081211 C276.578012,100.447048 279.595602,98.5613782 282.086598,101.029375 C284.577173,103.497372 281.185071,109 281.185071,109 L224,108.811263 Z" id="Fill-1" stroke="#FFFFFF"></path>
            </g>
        </g>
    </g>
</svg>