<?xml version="1.0" encoding="UTF-8"?>
<svg width="266px" height="221px" viewBox="0 0 266 221" version="1.1" xmlns="http://www.w3.org/2000/svg" xmlns:xlink="http://www.w3.org/1999/xlink">
    <!-- Generator: Sketch 54.1 (76490) - https://sketchapp.com -->
    <title>404</title>
    <desc>Created with Sketch.</desc>
    <g id="Material-Components" stroke="none" stroke-width="1" fill="none" fill-rule="evenodd">
        <g id="page-404-blue-dark" transform="translate(-134.000000, -317.000000)">
            <g id="404-blue-dark" transform="translate(88.000000, 286.000000)">
                <rect id="fond" x="0" y="0" width="360" height="260"></rect>
                <path d="M124.480992,228.265061 L109.512246,228.265061 L109.512246,250 L92.0253944,250 L92.0253944,228.265061 L46,228.265061 L46,218.028606 L86.4296018,157.451227 L109.512246,157.451227 L109.512246,214.24252 L124.480992,214.24252 L124.480992,228.265061 Z M64.6060105,214.24252 L92.0253944,214.24252 L92.0253944,185.916986 L92.4450789,170.772641 L92.1652893,170.772641 C90.1134884,175.540329 87.31562,180.635135 83.7716003,186.057212 L64.6060105,214.24252 Z M172.132189,230.148103 C160.227782,227.399754 152.158423,221.411305 147.92387,212.182575 C143.689317,202.953846 143.33851,190.688266 146.871439,175.385467 C150.404369,160.082669 156.096548,149.212222 163.948148,142.773801 C171.799748,136.33538 181.677604,134.490372 193.58201,137.23872 C205.486417,139.987069 213.555776,145.975519 217.79033,155.204248 C222.024883,164.432978 222.37569,176.698558 218.842761,192.001356 C215.309831,207.304154 209.617652,218.174601 201.766052,224.613022 C193.914452,231.051443 184.036596,232.896452 172.132189,230.148103 Z M175.633557,214.982013 C181.449451,216.324717 186.354682,214.770813 190.349399,210.320253 C194.344115,205.869693 197.571641,198.315873 200.032074,187.658567 C202.492507,177.001261 202.903003,168.797078 201.263572,163.045773 C199.624142,157.294468 195.896536,153.747516 190.080643,152.404811 C184.264749,151.062106 179.359518,152.61601 175.364801,157.066571 C171.370085,161.517131 168.142558,169.07095 165.682125,179.728256 C163.221693,190.385562 162.811197,198.589745 164.450628,204.341051 C166.090058,210.092356 169.817664,213.639308 175.633557,214.982013 Z M312,228.265061 L297.031255,228.265061 L297.031255,250 L279.544403,250 L279.544403,228.265061 L233.519008,228.265061 L233.519008,218.028606 L273.94861,157.451227 L297.031255,157.451227 L297.031255,214.24252 L312,214.24252 L312,228.265061 Z M252.125019,214.24252 L279.544403,214.24252 L279.544403,185.916986 L279.964087,170.772641 L279.684298,170.772641 C277.632497,175.540329 274.834628,180.635135 271.290609,186.057212 L252.125019,214.24252 Z" fill="#FFFFFF" fill-rule="nonzero"></path>
                <g id="clouds" transform="translate(67.000000, 77.000000)" stroke="#FFFFFF">
                    <path d="M186,18.9476041 C186,18.9476041 186.56613,11.4932157 191.941555,8.78483013 C197.317492,6.07669765 200.562385,12.0890606 200.562385,12.0890606 C200.562385,12.0890606 205.368612,2.22598082 210.419803,0.432877677 C211.189475,0.159761036 212.001337,-0.05361925 212.816012,0.0119388687 C215.103803,0.196463458 216.704259,2.65932251 216.540863,4.92576033 C216.377212,7.19219815 215.113008,8.79647366 215.113008,8.79647366 C215.113008,8.79647366 218.484219,5.83522103 221.676182,7.38330386 C224.867888,8.9313867 221.630666,13.9138037 221.630666,13.9138037 C221.630666,13.9138037 226.14002,9.66391641 230.075571,11.3745024 C234.011634,13.0848352 232.835393,19 232.835393,19 L186,18.9476041 Z" id="Fill-1"></path>
                    <path d="M0,45.8112633 C0.160505602,40.6419995 -0.0888889294,34.5091183 2.71342936,30.174537 C5.51574764,25.8399557 10.3486092,22.6089537 15.483946,22.7455227 C17.9349213,22.8104142 20.4697302,23.7138054 22.005276,25.6384952 C24.8349771,28.8737385 23.4165457,33.2978106 23.4165457,33.2978106 C23.4165457,33.2978106 26.9657838,19.2044836 37.5663152,19.0021749 C48.1664253,18.7998661 48.6045509,32.7680756 45.3198732,37.3681606 C45.7651604,36.1509152 48.409922,33.47552 50.3368318,33.9692042 C53.1442054,34.8051592 52.704816,37.432628 51.5770641,39.0812109 C52.5780124,37.4470483 55.595602,35.5613782 58.0865984,38.0293751 C60.5771735,40.497372 57.1850708,46 57.1850708,46 L0,45.8112633 Z" id="Fill-1"></path>
                    <path d="M189.143388,41.7725739 C185.687486,38.5844664 181.362346,43.2320273 181.362346,43.2320273 C181.362346,43.2320273 182.186511,37.8126054 177.754443,36.2934753 C175.369134,35.4757092 172.633432,36.4508641 170.802501,38.1801739 C168.971571,39.9094836 167.978954,44.6832835 167.978954,44.6832835 C167.978954,44.6832835 165.12415,40.9125095 162.514129,43.6258273 C160.936206,45.266278 161.000363,49 161.000363,49 L187.946127,48.8809747 C187.946127,48.8809747 191.6172,44.0540561 189.143388,41.7725739" id="Fill-1"></path>
                </g>
                <g id="balloons" transform="translate(132.000000, 30.000000)" stroke="#136AB3">
                    <path d="M51.5,122.630952 L36.243905,71.1083303" id="Line-3" stroke-linecap="round"></path>
                    <path d="M52.5,122.360551 L36.243905,50.5" id="Line-3" stroke-linecap="round"></path>
                    <path d="M53.5,122.360551 L39.6535043,52.5" id="Line-3" stroke-linecap="round"></path>
                    <path d="M55.243905,122.360551 L60,77.5" id="Line-3" stroke-linecap="round"></path>
                    <path d="M54.5674484,122.360551 L52.5,62.1005663" id="Line-3" stroke-linecap="round"></path>
                    <path d="M50.5,122.731519 L25.5,64.5" id="Line-3" stroke-linecap="round"></path>
                    <path d="M51.756095,122.731519 L20.5,47.5" id="Line-3" stroke-linecap="round"></path>
                    <path d="M49.6676957,122.731519 L27.5,80.5788684" id="Line-3" stroke-linecap="round"></path>
                    <path d="M56.5,122.630952 L72.243905,67.0999398" id="Line-3" stroke-linecap="round"></path>
                    <path d="M57.2837242,122.731519 L73.0509136,78.5" id="Line-3" stroke-linecap="round"></path>
                    <path d="M58.0064464,122.731519 L82.5,79.5" id="Line-3" stroke-linecap="round"></path>
                    <ellipse id="Oval" fill="#B8D2E8" transform="translate(39.653504, 19.768481) rotate(-7.000000) translate(-39.653504, -19.768481) " cx="39.6535043" cy="19.7684813" rx="13" ry="16.5"></ellipse>
                    <ellipse id="Oval" fill="#B8D2E8" transform="translate(58.397409, 18.500000) rotate(6.000000) translate(-58.397409, -18.500000) " cx="58.3974093" cy="18.5" rx="13" ry="16.5"></ellipse>
                    <path d="M16.7432798,48.8740271 C13.0166854,46.4344077 10.1259192,41.9295426 9.25941141,36.4586275 C7.83387132,27.4581216 12.4268835,19.2512747 19.5181912,18.1281219 C26.6094989,17.0049691 33.5137682,23.3908255 34.9393083,32.3913314 C36.1471296,40.0172155 33.0344055,47.0733545 27.7422714,49.7339431 C31.4344428,52.1325333 34.3328674,56.5368452 35.2810133,61.9140479 C36.8634168,70.8883039 32.4143334,79.17406 25.3437075,80.4208021 C18.2730815,81.6675442 11.2584152,75.4031565 9.67601176,66.4289005 C8.32052787,58.7415694 11.3907102,51.5594322 16.7432798,48.8740271 Z" id="Oval-2" fill="#B8D2E8"></path>
                    <ellipse id="Oval" fill="#B8D2E8" transform="translate(34.421117, 32.330506) rotate(-9.000000) translate(-34.421117, -32.330506) " cx="34.4211171" cy="32.3305057" rx="13" ry="16.5"></ellipse>
                    <ellipse id="Oval" fill="#B8D2E8" transform="translate(87.165022, 36.062024) rotate(15.000000) translate(-87.165022, -36.062024) " cx="87.1650221" cy="36.0620244" rx="13" ry="16.5"></ellipse>
                    <ellipse id="Oval" fill="#B8D2E8" transform="translate(72.827550, 30.302424) rotate(15.000000) translate(-72.827550, -30.302424) " cx="72.82755" cy="30.3024237" rx="13" ry="16.5"></ellipse>
                    <ellipse id="Oval" fill="#B8D2E8" transform="translate(17.256095, 49.579861) rotate(-17.000000) translate(-17.256095, -49.579861) " cx="17.256095" cy="49.5798606" rx="13" ry="16.5"></ellipse>
                    <ellipse id="Oval" fill="#B8D2E8" transform="translate(33.667696, 63.506754) rotate(-10.000000) translate(-33.667696, -63.506754) " cx="33.6676957" cy="63.5067542" rx="13" ry="16.5"></ellipse>
                    <ellipse id="Oval" fill="#B8D2E8" transform="translate(88.276835, 63.320304) rotate(15.000000) translate(-88.276835, -63.320304) " cx="88.2768351" cy="63.3203042" rx="13" ry="16.5"></ellipse>
                    <ellipse id="Oval" fill="#B8D2E8" transform="translate(76.827550, 62.302424) rotate(15.000000) translate(-76.827550, -62.302424) " cx="76.82755" cy="62.3024237" rx="13" ry="16.5"></ellipse>
                    <ellipse id="Oval" fill="#B8D2E8" transform="translate(62.356815, 67.597543) rotate(10.000000) translate(-62.356815, -67.597543) " cx="62.3568152" cy="67.5975434" rx="13" ry="16.5"></ellipse>
                    <ellipse id="Oval" fill="#B8D2E8" transform="translate(53.657849, 54.692832) rotate(2.000000) translate(-53.657849, -54.692832) " cx="53.6578492" cy="54.6928317" rx="13" ry="16.5"></ellipse>
                    <ellipse id="Oval" fill="#B8D2E8" transform="translate(42.653504, 38.768481) rotate(-6.000000) translate(-42.653504, -38.768481) " cx="42.6535043" cy="38.7684813" rx="13" ry="16.5"></ellipse>
                    <ellipse id="Oval" fill="#B8D2E8" transform="translate(74.378503, 46.001470) rotate(13.000000) translate(-74.378503, -46.001470) " cx="74.3785032" cy="46.0014698" rx="13" ry="16.5"></ellipse>
                    <ellipse id="Oval" fill="#B8D2E8" transform="translate(61.607962, 36.702431) rotate(6.000000) translate(-61.607962, -36.702431) " cx="61.6079615" cy="36.7024312" rx="13" ry="16.5"></ellipse>
                    <path d="M54.5674484,122.361953 L60,53.5" id="Line-3" stroke-linecap="round"></path>
                    <path d="M53.6578492,122.630952 L44.5,55.3644481" id="Line-3" stroke-linecap="round"></path>
                    <path d="M56,122.361953 L71.4492852,62.3024237" id="Line-3" stroke-linecap="round"></path>
                </g>
                <ellipse id="Oval" fill="#B8D2E8" cx="179" cy="249" rx="25" ry="3"></ellipse>
            </g>
        </g>
    </g>
</svg>